# AST/ASF file generated using VICON BodyLanguage
# -----------------------------------------------
:version 1.10
:name VICON
:units
  mass 1.0
  length 0.45
  angle deg
:documentation
   .ast/.asf automatically generated from VICON data using
   VICON BodyBuilder and BodyLanguage model FoxedUp or BRILLIANT.MOD
:root
   order TX TY TZ RX RY RZ
   axis XYZ
   position 0 0 0  
   orientation 0 0 0 
:bonedata
  begin
     id 1 
     name lhipjoint
     direction 0.610259 -0.730986 0.305356 
     length 2.50941 
     axis 0 0 0  XYZ
  end
  begin
     id 2 
     name lfemur
     direction 0.34202 -0.939693 0  
     length 7.48822  
     axis 0 0 20  XYZ
    dof rx ry rz
    limits (-160.0 20.0)
           (-70.0 70.0)
           (-60.0 70.0)
  end
  begin
     id 3 
     name ltibia
     direction 0.34202 -0.939693 0   
     length 7.60141   
     axis 0 0 20   XYZ
    dof rx
    limits (-10.0 170.0)
  end
  begin
     id 4 
     name lfoot
     direction 0.0673488 -0.185039 0.980421   
     length 2.04049   
     axis -90 7.62852e-016 20   XYZ
    dof rx rz
    limits (-45.0 90.0)
           (-70.0 20.0)
  end
  begin
     id 5 
     name ltoes
     direction 1.5356e-011 -4.21729e-011 1   
     length 1.02897   
     axis -90 7.62852e-016 20   XYZ
    dof rx
    limits (-90.0 20.0)
  end
  begin
     id 6 
     name rhipjoint
     direction -0.57612 -0.754205 0.315056   
     length 2.43216  
     axis 0 0 0  XYZ 
  end
  begin
     id 7 
     name rfemur
     direction -0.34202 -0.939693 0   
     length 7.42799   
     axis 0 0 -20   XYZ
    dof rx ry rz
    limits (-160.0 20.0)
           (-70.0 70.0)
           (-70.0 60.0)
  end
  begin
     id 8 
     name rtibia
     direction -0.34202 -0.939693 0   
     length 7.69484   
     axis 0 0 -20   XYZ
    dof rx
    limits (-10.0 170.0)
 end
 begin
     id 9 
     name rfoot
     direction -0.111837 -0.30727 0.945028   
     length 2.15769  
     axis -90 -7.62852e-016 -20   XYZ
    dof rx rz
    limits (-45.0 90.0)
           (-20.0 70.0)
  end
  begin
     id 10 
     name rtoes
     direction -1.53539e-011 -4.21878e-011 1   
     length 1.07391   
     axis -90 -7.62852e-016 -20   XYZ
    dof rx
    limits (-90.0 20.0)
  end
  begin
     id 11 
     name lowerback
     direction 0.00552624 0.990109 -0.140195   
     length 2.12403   
     axis 0 0 0   XYZ
    dof rx ry rz
    limits (-20.0 45.0)
           (-30.0 30.0)
           (-30.0 30.0)
  end
  begin
     id 12 
     name upperback
     direction 0.00361898 0.999976 -0.00584723   
     length 2.13232   
     axis 0 0 0   XYZ
    dof rx ry rz
    limits (-20.0 45.0)
           (-30.0 30.0)
           (-30.0 30.0)
  end
  begin
     id 13 
     name thorax
     direction -0.000331275 0.998253 0.0590847   
     length 2.17688   
     axis 0 0 0   XYZ
    dof rx ry rz
    limits (-20.0 45.0)
           (-30.0 30.0)
           (-30.0 30.0)
  end
  begin
     id 14 
     name lowerneck
     direction -0.0561561 0.979832 0.19177   
     length 1.64159   
     axis 0 0 0   XYZ
    dof rx ry rz
    limits (-20.0 45.0)
           (-30.0 30.0)
           (-30.0 30.0)
  end
  begin
     id 15 
     name upperneck
     direction 0.0827153 0.979385 -0.184293   
     length 1.68939   
     axis 0 0 0   XYZ
    dof rx ry rz
    limits (-20.0 45.0)
           (-30.0 30.0)
           (-30.0 30.0)
  end
  begin
     id 16
     name head
     direction 0.0278583 0.995936 -0.0856488  
     length 1.70207  
     axis 0 0 0   XYZ
    dof rx ry rz
    limits (-20.0 45.0)
           (-30.0 30.0)
           (-30.0 30.0)
  end
  begin
     id 17 
     name lclavicle
     direction 0.950993 0.301131 -0.0702275  
     length 3.41652  
     axis 0 0 0   XYZ
    dof ry rz
    limits (-20.0 10.0)
           (0.0 20.0)
  end
  begin
     id 18 
     name lhumerus
     direction 1 -4.48981e-011 -3.9662e-029   
     length 5.32955   
     axis 180 -30 -90   XYZ
    dof rx ry rz
    limits (-60.0 90.0)
           (-90.0 90.0)
           (-90.0 90.0)
  end
  begin
     id 19
     name lradius
     direction 1 -4.48925e-011 -9.0549e-027   
     length 3.69232   
     axis 180 -30 -90   XYZ
    dof rx
    limits (-10.0 170.0)
  end
  begin
     id 20
     name lwrist
     direction 1 -4.49007e-011 -1.49005e-026   
     length 1.84616   
     axis 9.0955e-015 90 90   XYZ
    dof ry
    limits (-180.0 0.0)
 end
  begin
     id 21 
     name lhand
     direction 1 -4.49016e-011 -2.98023e-026   
     length 0.536598   
     axis 1.90115e-014 90 90   XYZ
    dof rx rz
    limits (-90.0 90.0)
           (-45.0 45.0)
  end
  begin
     id 22 
     name lfingers
     direction 1 -4.48924e-011 -5.9578e-026   
     length 0.432619   
     axis 3.80223e-014 90 90   XYZ
    dof rx
    limits (0.0 90.0)
  end
  begin
     id 23
     name lthumb
     direction 0.707107 -6.34947e-011 0.707107   
     length 0.621157   
     axis -90 45 -3.84942e-014   XYZ
    dof rx rz
    limits (-45.0 45.0)
           (-45.0 45.0)
  end
  begin
     id 24 
     name rclavicle
     direction -0.955495 0.276497 -0.102848   
     length 3.36357  
     axis 0 0 0   XYZ 
    dof ry rz
    limits (-10.0 20.0)
           (-20.0 0.0)
  end
  begin
     id 25 
     name rhumerus
     direction -1 -4.48961e-011 3.30983e-027  
     length 5.23431   
     axis 180 30 90   XYZ
    dof rx ry rz
    limits (-90.0 60.0)
           (-90.0 90.0)
           (-90.0 90.0)
  end
  begin
     id 26 
     name rradius
     direction -1 -4.48965e-011 -6.63263e-027   
     length 3.55301   
     axis 180 30 90   XYZ
    dof rx
    limits (-10.0 170.0)
  end
  begin
     id 27 
     name rwrist
     direction -1 -4.48942e-011 -1.48958e-026   
     length 1.77651   
     axis 9.0955e-015 -90 -90   XYZ
    dof ry
    limits (-180.0 0.0)
  end
  begin
     id 28
     name rhand
     direction -1 -4.48977e-011 -2.97966e-026   
     length 0.772522   
     axis 1.90115e-014 -90 -90   XYZ
    dof rx rz
    limits (-90.0 90.0)
           (-45.0 45.0)
  end
  begin
     id 29
     name rfingers
     direction -1 -4.49135e-011 -5.96389e-026   
     length 0.622827   
     axis 3.80223e-014 -90 -90   XYZ
    dof rx
    limits (0.0 90.0)
  end
  begin
     id 30
     name rthumb
     direction -0.707107 -6.34969e-011 0.707107   
     length 0.894259   
     axis -90 -45 3.84942e-014   XYZ
    dof rx rz
    limits (-45.0 45.0)
           (-45.0 45.0)
  end
:hierarchy
  begin
    root lhipjoint rhipjoint lowerback
    lhipjoint lfemur
    lfemur ltibia
    ltibia lfoot
    lfoot ltoes
    rhipjoint rfemur
    rfemur rtibia
    rtibia rfoot
    rfoot rtoes
    lowerback upperback
    upperback thorax
    thorax lowerneck lclavicle rclavicle
    lowerneck upperneck
    upperneck head
    lclavicle lhumerus
    lhumerus lradius
    lradius lwrist
    lwrist lhand lthumb
    lhand lfingers
    rclavicle rhumerus
    rhumerus rradius
    rradius rwrist
    rwrist rhand rthumb
    rhand rfingers
  end

#!OML:ASF F:\VICON\USERDATA\INSTALL\rory3\rory3.ASF
:FULLY-SPECIFIED
:DEGREES
124
root 7.16576 17.7823 -8.41456 5.77062 -47.5303 -4.56609
lowerback 10.9281 3.08557 3.75152
upperback 0.352554 4.59906 0.828487
thorax -5.52496 2.16647 -1.94064
lowerneck -18.9474 -5.50816 -12.1542
upperneck 30.7961 -6.9578 8.23326
head 14.5382 -3.40943 4.17572
rclavicle -5.12367e-014 -5.96354e-015
rhumerus -34.1064 -11.781 -81.9484
rradius 27.9704
rwrist 7.34459
rhand -11.499 11.5323
rfingers 7.12502
rthumb 14.5398 -17.9382
lclavicle -5.12367e-014 -5.96354e-015
lhumerus -41.9762 13.5148 79.2766
lradius 26.1922
lwrist -8.86433
lhand -18.2824 30.0305
lfingers 7.12502
lthumb 7.99776 59.8592
rfemur 19.9611 1.17472 27.9126
rtibia -1.90833e-014
rfoot -8.13232 -1.26196
rtoes -4.41021
lfemur -25.223 1.55398 -16.7257
ltibia 20.2461
lfoot 1.87422 -3.26144
ltoes 0.585718
125
root 7.10499 17.7992 -8.31878 5.65283 -47.6445 -4.35053
lowerback 10.8677 3.10821 3.6771
upperback 0.318221 4.61634 0.780914
thorax -5.52818 2.17632 -1.94879
lowerneck -18.833 -5.47229 -12.0611
upperneck 30.7612 -6.88055 8.03672
head 14.4731 -3.39346 4.09107
rclavicle 1.87852e-014 5.96354e-016
rhumerus -34.2488 -11.7707 -81.8831
rradius 28.0315
rwrist 7.44214
rhand -11.4284 11.7287
rfingers 7.12502
rthumb 14.6078 -17.7369
lclavicle 1.87852e-014 5.96354e-016
lhumerus -42.0958 13.8079 79.0669
lradius 26.409
lwrist -9.53584
lhand -17.8108 30.0576
lfingers 7.12502
lthumb 8.45297 59.8684
rfemur 20.2719 1.28648 27.5884
rtibia -2.22639e-014
rfoot -7.47553 -1.07412
rtoes -4.38038
lfemur -24.8883 1.50352 -16.974
ltibia 20.2419
lfoot 1.93793 -2.97426
ltoes -0.126008
126
root 7.04206 17.8168 -8.22412 5.53261 -47.7649 -4.16904
lowerback 10.8403 3.17535 3.60654
upperback 0.310569 4.69416 0.746091
thorax -5.51918 2.21638 -1.95563
lowerneck -18.7881 -5.47927 -12.1545
upperneck 30.8052 -6.89706 8.11796
head 14.4934 -3.40304 4.14037
rclavicle -4.14963e-015 3.20043e-014
rhumerus -34.3644 -11.9154 -81.7561
rradius 28.1274
rwrist 7.48847
rhand -11.3743 11.6168
rfingers 7.12502
rthumb 14.6599 -17.845
lclavicle -4.14963e-015 3.20043e-014
lhumerus -42.0637 13.6603 79.3097
lradius 26.5017
lwrist -8.62494
lhand -18.6478 29.6539
lfingers 7.12502
lthumb 7.64512 59.4957
rfemur 20.6141 1.40269 27.2933
rtibia 1.90833e-014
rfoot -6.76759 -0.882896
rtoes -3.93044
lfemur -24.5134 1.57322 -17.2303
ltibia 20.3124
lfoot 1.6928 -2.88528
ltoes -0.982193
127
root 6.97803 17.8306 -8.12832 5.4353 -47.7867 -4.03297
lowerback 10.6865 3.20074 3.66173
upperback 0.408378 4.71774 0.634505
thorax -5.31457 2.23189 -2.09125
lowerneck -18.8796 -5.51197 -12.1028
upperneck 30.8423 -6.98097 8.19321
head 14.5427 -3.42113 4.14775
rclavicle 1.31198e-014 -3.37934e-015
rhumerus -34.268 -12.1527 -81.8511
rradius 28.1992
rwrist 7.35333
rhand -11.5253 11.6081
rfingers 7.12502
rthumb 14.5144 -17.8642
lclavicle 1.31198e-014 -3.37934e-015
lhumerus -41.7509 13.2477 79.5862
lradius 26.56
lwrist -7.71916
lhand -19.3861 29.5008
lfingers 7.12502
lthumb 6.93243 59.3673
rfemur 20.1487 1.40517 27.0587
rtibia 1.58859
rfoot -6.8035 -0.743724
rtoes -4.64702
lfemur -24.1697 1.76274 -17.5024
ltibia 20.4469
lfoot 1.34071 -3.01302
ltoes -1.90663
128
root 6.91417 17.8479 -8.03091 5.3774 -47.7585 -3.87215
lowerback 10.4105 3.20464 3.70675
upperback 0.543697 4.70454 0.513623
thorax -5.00446 2.23312 -2.2155
lowerneck -19.0704 -5.53352 -12.0107
upperneck 30.8565 -7.03802 8.24546
head 14.5971 -3.42249 4.14182
rclavicle 2.63638e-014 -1.76918e-014
rhumerus -34.0705 -12.5128 -81.9093
rradius 28.2575
rwrist 7.36383
rhand -11.5069 11.753
rfingers 7.12502
rthumb 14.5322 -17.718
lclavicle 2.63638e-014 -1.76918e-014
lhumerus -41.3668 12.9074 79.7199
lradius 26.7101
lwrist -7.70489
lhand -19.2162 29.4063
lfingers 7.12502
lthumb 7.09647 59.2674
rfemur 18.6491 1.3448 26.8102
rtibia 5.02619
rfoot -7.64007 -0.674835
rtoes -5.96441
lfemur -23.8791 2.21196 -17.8444
ltibia 20.5463
lfoot 0.994765 -3.54394
ltoes -1.61354
129
root 6.84816 17.8661 -7.93323 5.28664 -47.8502 -3.76448
lowerback 10.3343 3.23476 3.65216
upperback 0.582741 4.73215 0.488248
thorax -4.9214 2.25045 -2.20839
lowerneck -19.1557 -5.54243 -11.9675
upperneck 30.9602 -7.03533 8.16345
head 14.6568 -3.42685 4.10288
rclavicle -2.27111e-014 2.14687e-014
rhumerus -34.1618 -12.4757 -81.8757
rradius 28.453
rwrist 7.24419
rhand -11.4753 11.7118
rfingers 7.12502
rthumb 14.5626 -17.7571
lclavicle -2.27111e-014 2.14687e-014
lhumerus -41.2163 12.7925 79.8187
lradius 26.8928
lwrist -7.5511
lhand -18.9258 29.4313
lfingers 7.12502
lthumb 7.37678 59.2827
rfemur 17.848 1.40683 26.5853
rtibia 7.24815
rfoot -7.75199 -0.559529
rtoes -6.56467
lfemur -23.454 2.43505 -18.0524
ltibia 20.598
lfoot 0.687667 -3.94567
ltoes -0.996244
130
root 6.77953 17.8827 -7.83403 4.93397 -48.0514 -3.47143
lowerback 10.4369 3.27387 3.36501
upperback 0.578485 4.75518 0.489281
thorax -5.00506 2.26598 -2.05854
lowerneck -18.9612 -5.49503 -12.0154
upperneck 30.9086 -6.97762 8.18128
head 14.5852 -3.41019 4.12981
rclavicle -2.73329e-014 4.96962e-015
rhumerus -34.3726 -12.382 -81.7575
rradius 28.6423
rwrist 7.31256
rhand -11.3145 11.5892
rfingers 7.12502
rthumb 14.7175 -17.8684
lclavicle -2.73329e-014 4.96962e-015
lhumerus -41.276 12.7454 79.9224
lradius 27.131
lwrist -7.34691
lhand -18.6257 29.4874
lfingers 7.12502
lthumb 7.66646 59.3285
rfemur 17.2716 1.55886 26.2054
rtibia 9.30101
rfoot -7.67564 -0.345635
rtoes -7.28146
lfemur -22.8551 2.72715 -18.3904
ltibia 20.5752
lfoot 0.46329 -4.35913
ltoes -0.261835
131
root 6.70999 17.9025 -7.73338 4.57659 -48.1602 -3.12798
lowerback 10.4261 3.28297 3.10643
upperback 0.615487 4.7347 0.475126
thorax -4.98084 2.26256 -1.92482
lowerneck -18.9144 -5.46598 -12.1538
upperneck 30.9643 -6.94079 8.30134
head 14.607 -3.39809 4.21423
rclavicle 1.06052e-013 -1.43125e-014
rhumerus -34.4645 -12.2307 -81.7206
rradius 28.8054
rwrist 7.19534
rhand -11.3634 11.5014
rfingers 7.12502
rthumb 14.6704 -17.9596
lclavicle 1.06052e-013 -1.43125e-014
lhumerus -41.349 12.6942 80.0795
lradius 27.5082
lwrist -7.3581
lhand -18.4738 29.7076
lfingers 7.12502
lthumb 7.81301 59.5433
rfemur 16.6741 1.62538 25.7815
rtibia 11.3398
rfoot -7.44623 -0.0523648
rtoes -8.1359
lfemur -22.2682 3.0182 -18.7808
ltibia 20.4575
lfoot 0.330722 -4.72635
ltoes 0.704843
132
root 6.64312 17.9212 -7.63014 4.42147 -48.21 -2.98838
lowerback 10.3264 3.31251 3.10533
upperback 0.664558 4.7663 0.431052
thorax -4.8683 2.281 -1.96521
lowerneck -18.9514 -5.48948 -12.1267
upperneck 31.057 -6.97907 8.2727
head 14.66 -3.416 4.19302
rclavicle 2.11706e-014 1.78906e-015
rhumerus -34.4864 -12.1532 -81.7228
rradius 28.9123
rwrist 7.0056
rhand -11.648 11.4892
rfingers 7.12502
rthumb 14.3962 -17.9916
lclavicle 2.11706e-014 1.78906e-015
lhumerus -41.3156 12.3774 80.3187
lradius 27.8716
lwrist -7.30455
lhand -18.7551 29.4786
lfingers 7.12502
lthumb 7.5415 59.3242
rfemur 15.9931 1.70265 25.4966
rtibia 13.3998
rfoot -7.07463 0.269074
rtoes -7.0122
lfemur -21.6816 3.19998 -19.0214
ltibia 20.2404
lfoot 0.209287 -4.89114
ltoes 0.660133
133
root 6.57568 17.9425 -7.52762 4.30397 -48.2548 -2.8674
lowerback 10.2488 3.35071 3.09249
upperback 0.683036 4.80987 0.382836
thorax -4.80014 2.30433 -2.00767
lowerneck -18.8884 -5.53593 -12.204
upperneck 31.0458 -7.07329 8.39576
head 14.6637 -3.45085 4.24082
rclavicle 7.61345e-014 1.31198e-014
rhumerus -34.5628 -12.2498 -81.678
rradius 29.0503
rwrist 7.03837
rhand -11.7782 11.4213
rfingers 7.12502
rthumb 14.2708 -18.0684
lclavicle 7.61345e-014 1.31198e-014
lhumerus -41.1643 11.8414 80.6084
lradius 28.1246
lwrist -6.81515
lhand -19.3144 28.8616
lfingers 7.12502
lthumb 7.00171 58.7258
rfemur 15.2269 1.52033 25.1512
rtibia 15.4559
rfoot -6.60547 0.743009
rtoes -6.23785
lfemur -21.1149 3.30187 -19.2231
ltibia 20.0282
lfoot 0.241691 -4.84677
ltoes 0.955254
134
root 6.50488 17.9607 -7.42677 4.04153 -48.3185 -2.54724
lowerback 10.2017 3.36096 2.83528
upperback 0.67833 4.78952 0.311709
thorax -4.79466 2.29953 -1.9331
lowerneck -18.8822 -5.54751 -12.1017
upperneck 31.0525 -7.10599 8.32937
head 14.6615 -3.46195 4.18871
rclavicle 1.35348e-013 3.02153e-014
rhumerus -34.6506 -12.1272 -81.7362
rradius 29.2483
rwrist 6.7853
rhand -11.72 11.3423
rfingers 7.12502
rthumb 14.3268 -18.1433
lclavicle 1.35348e-013 3.02153e-014
lhumerus -41.0523 11.3577 80.8114
lradius 28.4389
lwrist -6.34707
lhand -18.654 28.7916
lfingers 7.12502
lthumb 7.63916 58.6337
rfemur 14.4076 1.23009 24.6593
rtibia 17.5835
rfoot -5.98673 1.21004
rtoes -6.51654
lfemur -20.5539 3.56208 -19.5887
ltibia 19.8302
lfoot 0.346855 -4.97524
ltoes 1.29075
135
root 6.43302 17.9766 -7.32572 3.87694 -48.3256 -2.37954
lowerback 10.1663 3.33257 2.66095
upperback 0.655212 4.73145 0.302139
thorax -4.81522 2.27413 -1.83722
lowerneck -18.8426 -5.4952 -11.9833
upperneck 31.103 -7.05284 8.24785
head 14.6579 -3.43854 4.14586
rclavicle 6.26172e-014 -1.17283e-014
rhumerus -34.7733 -11.8035 -81.8013
rradius 29.4809
rwrist 6.40306
rhand -11.4909 11.2658
rfingers 7.12502
rthumb 14.5475 -18.2041
lclavicle 6.26172e-014 -1.17283e-014
lhumerus -40.9728 11.0961 80.9044
lradius 28.7221
lwrist -6.38331
lhand -17.5859 28.6234
lfingers 7.12502
lthumb 8.67 58.4253
rfemur 13.5699 1.00952 24.3161
rtibia 19.7813
rfoot -5.2091 1.67408
rtoes -5.10567
lfemur -20.0066 4.07738 -19.8852
ltibia 19.6391
lfoot 0.27234 -5.50293
ltoes 1.37287
136
root 6.36169 17.9814 -7.22092 3.66414 -48.3833 -2.26095
lowerback 10.0719 3.31306 2.59086
upperback 0.700581 4.69425 0.317354
thorax -4.7236 2.25978 -1.76923
lowerneck -18.8319 -5.44547 -12.1034
upperneck 31.2401 -6.99106 8.35706
head 14.7201 -3.41617 4.2302
rclavicle -4.04775e-014 4.57205e-015
rhumerus -34.847 -11.5592 -81.7704
rradius 29.6549
rwrist 6.39584
rhand -11.2848 11.314
rfingers 7.12502
rthumb 14.7461 -18.1415
lclavicle -4.04775e-014 4.57205e-015
lhumerus -40.8337 10.8771 81.0444
lradius 28.9046
lwrist -6.47819
lhand -17.3175 28.351
lfingers 7.12502
lthumb 8.92899 58.142
rfemur 12.8191 0.837173 23.9783
rtibia 21.9928
rfoot -4.28324 2.07712
rtoes -3.65755
lfemur -19.3963 4.85263 -20.1743
ltibia 19.4962
lfoot 0.0213208 -6.21997
ltoes 2.24428
137
root 6.29256 17.99 -7.11893 3.50626 -48.4345 -2.2038
lowerback 9.98467 3.28826 2.5897
upperback 0.77164 4.65559 0.300667
thorax -4.60096 2.24365 -1.77185
lowerneck -18.9261 -5.41282 -12.1221
upperneck 31.3846 -6.95166 8.39732
head 14.8043 -3.39748 4.26287
rclavicle 4.68138e-014 1.05356e-014
rhumerus -34.846 -11.3787 -81.7676
rradius 29.8673
rwrist 6.41843
rhand -11.0409 11.3751
rfingers 7.12502
rthumb 14.9811 -18.063
lclavicle 4.68138e-014 1.05356e-014
lhumerus -40.666 10.3725 81.3242
lradius 29.2157
lwrist -5.81859
lhand -17.0062 28.8962
lfingers 7.12502
lthumb 9.22936 58.6742
rfemur 11.9745 0.498604 23.6412
rtibia 24.2075
rfoot -3.11692 2.52782
rtoes -3.12422
lfemur -18.7828 5.55309 -20.3999
ltibia 19.3152
lfoot -0.208726 -6.96624
ltoes 2.91813
